HIERARCHY
ROOT root_translation_joint
{
	OFFSET	0	0	0
	CHANNELS 6 Xposition Yposition Zposition Zrotation Xrotation Yrotation
	JOINT head_joint
	{
		OFFSET	0	0.4982	0
		CHANNELS 3  Zrotation Xrotation Yrotation
		JOINT middleleftshoulder_joint
		{
			OFFSET	0	0	0
			CHANNELS 3  Zrotation Xrotation Yrotation
			JOINT MiddleLeftUpperLimb_x_joint
			{
				OFFSET	-0.1891	0	-0.0795
				CHANNELS 3  Zrotation Xrotation Yrotation
				JOINT MiddleLeftLimb_joint
				{
					OFFSET	-0.4456	0.0015	0.1781
					CHANNELS 3  Zrotation Xrotation Yrotation
					JOINT MiddleLeftLowerLimb_joint
					{
						OFFSET	-0.3928	-0.0167	-0.3044
						CHANNELS 3  Zrotation Xrotation Yrotation
						JOINT MiddleLeftEffector_x_joint
						{
							OFFSET	-0.4343	-0.054	-0.1597
							CHANNELS 3  Zrotation Xrotation Yrotation
							JOINT Middleleft_foot_endeffector_joint
							{
								OFFSET	-0.024924	-0.097428	0.001788
								CHANNELS 3  Zrotation Xrotation Yrotation
								End Site
								{
									OFFSET	-0.0001239	-0.000484324	8.88832e-06
								}
							}
							JOINT Middleleft_foot_cp_1_joint
							{
								OFFSET	-0.05	0.02	-0.005
								CHANNELS 3  Zrotation Xrotation Yrotation
								End Site
								{
									OFFSET	-0.00046225	0.0001849	-4.6225e-05
								}
							}
							JOINT Middleleft_foot_cp_2_joint
							{
								OFFSET	-0.12	0.02	-0.005
								CHANNELS 3  Zrotation Xrotation Yrotation
								End Site
								{
									OFFSET	-0.000492781	8.21302e-05	-2.05325e-05
								}
							}
							JOINT Middleleft_foot_cp_3_joint
							{
								OFFSET	-0.12	-0.08	-0.005
								CHANNELS 3  Zrotation Xrotation Yrotation
								End Site
								{
									OFFSET	-0.000415775	-0.000277184	-1.7324e-05
								}
							}
							JOINT Middleleft_foot_cp_4_joint
							{
								OFFSET	-0.05	-0.08	-0.005
								CHANNELS 3  Zrotation Xrotation Yrotation
								End Site
								{
									OFFSET	-0.000264628	-0.000423405	-2.64628e-05
								}
							}
						}
					}
				}
			}
		}
		JOINT frontleftshoulder_joint
		{
			OFFSET	0	0	0
			CHANNELS 3  Zrotation Xrotation Yrotation
			JOINT FrontLeftUpperLimb_x_joint
			{
				OFFSET	-0.1891	0	-0.0795
				CHANNELS 3  Zrotation Xrotation Yrotation
				JOINT FrontLeftLimb_joint
				{
					OFFSET	-0.4456	0.0015	0.1781
					CHANNELS 3  Zrotation Xrotation Yrotation
					JOINT FrontLeftLowerLimb_joint
					{
						OFFSET	-0.3928	-0.0167	-0.3044
						CHANNELS 3  Zrotation Xrotation Yrotation
						JOINT FrontLeftEffector_x_joint
						{
							OFFSET	-0.4343	-0.054	-0.1597
							CHANNELS 3  Zrotation Xrotation Yrotation
							JOINT Frontleft_foot_endeffector_joint
							{
								OFFSET	-0.1086	-0.0059	-0.0138
								CHANNELS 3  Zrotation Xrotation Yrotation
								End Site
								{
									OFFSET	-0.000495293	-2.69082e-05	-6.29377e-05
								}
							}
							JOINT Frontleft_foot_cp_1_joint
							{
								OFFSET	-0.05	0.02	-0.005
								CHANNELS 3  Zrotation Xrotation Yrotation
								End Site
								{
									OFFSET	-0.00046225	0.0001849	-4.6225e-05
								}
							}
							JOINT Frontleft_foot_cp_2_joint
							{
								OFFSET	-0.12	0.02	-0.005
								CHANNELS 3  Zrotation Xrotation Yrotation
								End Site
								{
									OFFSET	-0.000492781	8.21302e-05	-2.05325e-05
								}
							}
							JOINT Frontleft_foot_cp_3_joint
							{
								OFFSET	-0.12	-0.08	-0.005
								CHANNELS 3  Zrotation Xrotation Yrotation
								End Site
								{
									OFFSET	-0.000415775	-0.000277184	-1.7324e-05
								}
							}
							JOINT Frontleft_foot_cp_4_joint
							{
								OFFSET	-0.05	-0.08	-0.005
								CHANNELS 3  Zrotation Xrotation Yrotation
								End Site
								{
									OFFSET	-0.000264628	-0.000423405	-2.64628e-05
								}
							}
						}
					}
				}
			}
		}
		JOINT BackLeftshoulder_joint
		{
			OFFSET	0	0	0
			CHANNELS 3  Zrotation Xrotation Yrotation
			JOINT BackLeftUpperLimb_x_joint
			{
				OFFSET	-0.1891	0	-0.0795
				CHANNELS 3  Zrotation Xrotation Yrotation
				JOINT BackLeftLimb_joint
				{
					OFFSET	-0.4456	0.0015	0.1781
					CHANNELS 3  Zrotation Xrotation Yrotation
					JOINT BackLeftLowerLimb_joint
					{
						OFFSET	-0.3928	-0.0167	-0.3044
						CHANNELS 3  Zrotation Xrotation Yrotation
						JOINT BackLeftEffector_x_joint
						{
							OFFSET	-0.4343	-0.054	-0.1597
							CHANNELS 3  Zrotation Xrotation Yrotation
							JOINT BackLeft_foot_endeffector_joint
							{
								OFFSET	-0.024924	-0.097428	0.001788
								CHANNELS 3  Zrotation Xrotation Yrotation
								End Site
								{
									OFFSET	-0.0001239	-0.000484324	8.88832e-06
								}
							}
							JOINT BackLeft_foot_cp_1_joint
							{
								OFFSET	-0.05	0.02	-0.005
								CHANNELS 3  Zrotation Xrotation Yrotation
								End Site
								{
									OFFSET	-0.00046225	0.0001849	-4.6225e-05
								}
							}
							JOINT BackLeft_foot_cp_2_joint
							{
								OFFSET	-0.12	0.02	-0.005
								CHANNELS 3  Zrotation Xrotation Yrotation
								End Site
								{
									OFFSET	-0.000492781	8.21302e-05	-2.05325e-05
								}
							}
							JOINT BackLeft_foot_cp_3_joint
							{
								OFFSET	-0.12	-0.08	-0.005
								CHANNELS 3  Zrotation Xrotation Yrotation
								End Site
								{
									OFFSET	-0.000415775	-0.000277184	-1.7324e-05
								}
							}
							JOINT BackLeft_foot_cp_4_joint
							{
								OFFSET	-0.05	-0.08	-0.005
								CHANNELS 3  Zrotation Xrotation Yrotation
								End Site
								{
									OFFSET	-0.000264628	-0.000423405	-2.64628e-05
								}
							}
						}
					}
				}
			}
		}
		JOINT BackRightshoulder_joint
		{
			OFFSET	0	0	0
			CHANNELS 3  Zrotation Xrotation Yrotation
			JOINT BackRightUpperLimb_x_joint
			{
				OFFSET	-0.1891	0	-0.0795
				CHANNELS 3  Zrotation Xrotation Yrotation
				JOINT BackRightLimb_joint
				{
					OFFSET	-0.4456	0.0015	0.1781
					CHANNELS 3  Zrotation Xrotation Yrotation
					JOINT BackRightLowerLimb_joint
					{
						OFFSET	-0.3928	-0.0167	-0.3044
						CHANNELS 3  Zrotation Xrotation Yrotation
						JOINT BackRightEffector_x_joint
						{
							OFFSET	-0.4343	-0.054	-0.1597
							CHANNELS 3  Zrotation Xrotation Yrotation
							JOINT BackRight_foot_endeffector_joint
							{
								OFFSET	-0.024924	-0.097428	0.001788
								CHANNELS 3  Zrotation Xrotation Yrotation
								End Site
								{
									OFFSET	-0.0001239	-0.000484324	8.88832e-06
								}
							}
							JOINT BackRight_foot_cp_1_joint
							{
								OFFSET	-0.05	0.02	-0.005
								CHANNELS 3  Zrotation Xrotation Yrotation
								End Site
								{
									OFFSET	-0.00046225	0.0001849	-4.6225e-05
								}
							}
							JOINT BackRight_foot_cp_2_joint
							{
								OFFSET	-0.12	0.02	-0.005
								CHANNELS 3  Zrotation Xrotation Yrotation
								End Site
								{
									OFFSET	-0.000492781	8.21302e-05	-2.05325e-05
								}
							}
							JOINT BackRight_foot_cp_3_joint
							{
								OFFSET	-0.12	-0.08	-0.005
								CHANNELS 3  Zrotation Xrotation Yrotation
								End Site
								{
									OFFSET	-0.000415775	-0.000277184	-1.7324e-05
								}
							}
							JOINT BackRight_foot_cp_4_joint
							{
								OFFSET	-0.05	-0.08	-0.005
								CHANNELS 3  Zrotation Xrotation Yrotation
								End Site
								{
									OFFSET	-0.000264628	-0.000423405	-2.64628e-05
								}
							}
						}
					}
				}
			}
		}
		JOINT MiddleRightshoulder_joint
		{
			OFFSET	0	0	0
			CHANNELS 3  Zrotation Xrotation Yrotation
			JOINT MiddleRightUpperLimb_x_joint
			{
				OFFSET	-0.1891	0	-0.0795
				CHANNELS 3  Zrotation Xrotation Yrotation
				JOINT MiddleRightLimb_joint
				{
					OFFSET	-0.4456	0.0015	0.1781
					CHANNELS 3  Zrotation Xrotation Yrotation
					JOINT MiddleRightLowerLimb_joint
					{
						OFFSET	-0.3928	-0.0167	-0.3044
						CHANNELS 3  Zrotation Xrotation Yrotation
						JOINT MiddleRightEffector_x_joint
						{
							OFFSET	-0.4343	-0.054	-0.1597
							CHANNELS 3  Zrotation Xrotation Yrotation
							JOINT MiddleRight_foot_endeffector_joint
							{
								OFFSET	-0.024924	-0.097428	0.001788
								CHANNELS 3  Zrotation Xrotation Yrotation
								End Site
								{
									OFFSET	-0.0001239	-0.000484324	8.88832e-06
								}
							}
							JOINT MiddleRight_foot_cp_1_joint
							{
								OFFSET	-0.05	0.02	-0.005
								CHANNELS 3  Zrotation Xrotation Yrotation
								End Site
								{
									OFFSET	-0.00046225	0.0001849	-4.6225e-05
								}
							}
							JOINT MiddleRight_foot_cp_2_joint
							{
								OFFSET	-0.12	0.02	-0.005
								CHANNELS 3  Zrotation Xrotation Yrotation
								End Site
								{
									OFFSET	-0.000492781	8.21302e-05	-2.05325e-05
								}
							}
							JOINT MiddleRight_foot_cp_3_joint
							{
								OFFSET	-0.12	-0.08	-0.005
								CHANNELS 3  Zrotation Xrotation Yrotation
								End Site
								{
									OFFSET	-0.000415775	-0.000277184	-1.7324e-05
								}
							}
							JOINT MiddleRight_foot_cp_4_joint
							{
								OFFSET	-0.05	-0.08	-0.005
								CHANNELS 3  Zrotation Xrotation Yrotation
								End Site
								{
									OFFSET	-0.000264628	-0.000423405	-2.64628e-05
								}
							}
						}
					}
				}
			}
		}
		JOINT FrontRightshoulder_joint
		{
			OFFSET	0	0	0
			CHANNELS 3  Zrotation Xrotation Yrotation
			JOINT FrontRightUpperLimb_x_joint
			{
				OFFSET	-0.1891	0	-0.0795
				CHANNELS 3  Zrotation Xrotation Yrotation
				JOINT FrontRightLimb_joint
				{
					OFFSET	-0.4456	0.0015	0.1781
					CHANNELS 3  Zrotation Xrotation Yrotation
					JOINT FrontRightLowerLimb_joint
					{
						OFFSET	-0.3928	-0.0167	-0.3044
						CHANNELS 3  Zrotation Xrotation Yrotation
						JOINT FrontRightEffector_x_joint
						{
							OFFSET	-0.4343	-0.054	-0.1597
							CHANNELS 3  Zrotation Xrotation Yrotation
							JOINT FrontRight_foot_endeffector_joint
							{
								OFFSET	-0.024924	-0.097428	0.001788
								CHANNELS 3  Zrotation Xrotation Yrotation
								End Site
								{
									OFFSET	-0.0001239	-0.000484324	8.88832e-06
								}
							}
							JOINT FrontRight_foot_cp_1_joint
							{
								OFFSET	-0.05	0.02	-0.005
								CHANNELS 3  Zrotation Xrotation Yrotation
								End Site
								{
									OFFSET	-0.00046225	0.0001849	-4.6225e-05
								}
							}
							JOINT FrontRight_foot_cp_2_joint
							{
								OFFSET	-0.12	0.02	-0.005
								CHANNELS 3  Zrotation Xrotation Yrotation
								End Site
								{
									OFFSET	-0.000492781	8.21302e-05	-2.05325e-05
								}
							}
							JOINT FrontRight_foot_cp_3_joint
							{
								OFFSET	-0.12	-0.08	-0.005
								CHANNELS 3  Zrotation Xrotation Yrotation
								End Site
								{
									OFFSET	-0.000415775	-0.000277184	-1.7324e-05
								}
							}
							JOINT FrontRight_foot_cp_4_joint
							{
								OFFSET	-0.05	-0.08	-0.005
								CHANNELS 3  Zrotation Xrotation Yrotation
								End Site
								{
									OFFSET	-0.000264628	-0.000423405	-2.64628e-05
								}
							}
						}
					}
				}
			}
		}
	}
}
MOTION
Frames:	11
Frame Time: 1
0	0	0	-90	-3.50824e-15	-90	-0	0	-0	-0	0	-0	-0	0	-0	-0	0	-0	-0	0	-0	-0	0	-0	-0	0	-0	-0	0	-0	-0	0	-0	-0	0	-0	-0	0	-0	-45	0	-0	-0	0	-0	-0	0	-0	-0	0	-0	-0	0	-0	-0	0	-0	-0	0	-0	-0	0	-0	-0	0	-0	-0	0	-0	45	0	-0	-0	0	-0	-0	0	-0	-0	0	-0	-0	0	-0	-0	0	-0	-0	0	-0	-0	0	-0	-0	0	-0	-0	0	-0	135	0	-0	-0	0	-0	-0	0	-0	-0	0	-0	-0	0	-0	-0	0	-0	-0	0	-0	-0	0	-0	-0	0	-0	-0	0	-0	180	0	-0	-0	0	-0	-0	0	-0	-0	0	-0	-0	0	-0	-0	0	-0	-0	0	-0	-0	0	-0	-0	0	-0	-0	0	-0	-135	0	-0	-0	0	-0	-0	0	-0	-0	0	-0	-0	0	-0	-0	0	-0	-0	0	-0	-0	0	-0	-0	0	-0	-0	0	-0
-0.3	3	3.3	-0	90	180	-0	0	-0	-0	0	-0	-7.75926	1.84432	54.2993	-0	0	-63.571	-0	0	-1.16006	-13.9753	-32.6806	-23.2821	-0.0572958	0	-0	-0	0	-0	-0	0	-0	-0	0	-0	-0	0	-0	-45	0	-0	6.25067	16.2302	-3.60913	-0	0	-45.3635	-0	0	-1.44753	-27.0513	-42.2938	-18.9198	-0.0572958	0	-0	-0	0	-0	-0	0	-0	-0	0	-0	-0	0	-0	45	0	-0	-0	0	-0	-0	0	-0	-0	0	-0	-0	0	-0	-0.0572958	0	-0	-0	0	-0	-0	0	-0	-0	0	-0	-0	0	-0	135	0	-0	-0	0	-0	-0	0	-0	-0	0	-0	-0	0	-0	-0.0572958	0	-0	-0	0	-0	-0	0	-0	-0	0	-0	-0	0	-0	180	0	-0	7.62478	-6.47383	38.5234	-0	0	-28.5431	-0	0	-17.3103	-13.8571	-33.5638	-27.7588	-0.0572958	0	-0	-0	0	-0	-0	0	-0	-0	0	-0	-0	0	-0	-135	0	-0	5.36762	27.7622	-15.2813	-0	0	-9.1011	-0	0	-11.2839	-15.1572	-33.0846	1.30433	-0.0572958	0	-0	-0	0	-0	-0	0	-0	-0	0	-0	-0	0	-0
-0.3	3	3.3	-0	90	180	-0	0	-0	-0	0	-0	-7.75926	1.84432	54.2993	-0	0	-63.571	-0	0	-1.16006	-13.9753	-32.6806	-23.2821	-0.0572958	0	-0	-0	0	-0	-0	0	-0	-0	0	-0	-0	0	-0	-45	0	-0	6.25067	16.2302	-3.60913	-0	0	-45.3635	-0	0	-1.44753	-27.0513	-42.2938	-18.9198	-0.0572958	0	-0	-0	0	-0	-0	0	-0	-0	0	-0	-0	0	-0	45	0	-0	-0	0	-0	-0	0	-0	-0	0	-0	-0	0	-0	-0.0572958	0	-0	-0	0	-0	-0	0	-0	-0	0	-0	-0	0	-0	135	0	-0	-0	0	-0	-0	0	-0	-0	0	-0	-0	0	-0	-0.0572958	0	-0	-0	0	-0	-0	0	-0	-0	0	-0	-0	0	-0	180	0	-0	7.62478	-6.47383	38.5234	-0	0	-28.5431	-0	0	-17.3103	-13.8571	-33.5638	-27.7588	-0.0572958	0	-0	-0	0	-0	-0	0	-0	-0	0	-0	-0	0	-0	-135	0	-0	5.36762	27.7622	-15.2813	-0	0	-9.1011	-0	0	-11.2839	-15.1572	-33.0846	1.30433	-0.0572958	0	-0	-0	0	-0	-0	0	-0	-0	0	-0	-0	0	-0
-0.337328	3.07119	3.35948	-105.512	75.1103	-71.7879	-0	0	-0	-0	0	-0	-23.0223	8.29868	56.6659	-0	0	-72.6986	-0	0	0.701518	-6.64412	-24.9871	-10.4316	-0.0572958	0	-0	-0	0	-0	-0	0	-0	-0	0	-0	-0	0	-0	-45	0	-0	-7.22648	7.28156	3.3572	-0	0	-44.0475	-0	0	-36.3689	-33.5857	-45.5543	-27.1746	-0.0572958	0	-0	-0	0	-0	-0	0	-0	-0	0	-0	-0	0	-0	45	0	-0	-0	0	-0	-0	0	-0	-0	0	-0	-0	0	-0	-0.0572958	0	-0	-0	0	-0	-0	0	-0	-0	0	-0	-0	0	-0	135	0	-0	8.21898	0.107625	18.5169	-0	0	-14.8695	-0	0	21.3405	-11.5714	-34.3508	-27.3685	-0.0572958	0	-0	-0	0	-0	-0	0	-0	-0	0	-0	-0	0	-0	180	0	-0	-10.8234	7.7205	32.209	-0	0	-20.7791	-0	0	-9.84871	-7.77013	-23.0781	-15.9639	-0.0572958	0	-0	-0	0	-0	-0	0	-0	-0	0	-0	-0	0	-0	-135	0	-0	7.92773	-3.30326	-6.68356	-0	0	-16.771	-0	0	-22.5099	-16.2496	-37.534	-23.7172	-0.0572958	0	-0	-0	0	-0	-0	0	-0	-0	0	-0	-0	0	-0
-0.337328	3.07119	3.35948	-105.512	75.1103	-71.7879	-0	0	-0	-0	0	-0	-23.0223	8.29868	56.6659	-0	0	-72.6986	-0	0	0.701518	-6.64412	-24.9871	-10.4316	-0.0572958	0	-0	-0	0	-0	-0	0	-0	-0	0	-0	-0	0	-0	-45	0	-0	-7.22648	7.28156	3.3572	-0	0	-44.0475	-0	0	-36.3689	-33.5857	-45.5543	-27.1746	-0.0572958	0	-0	-0	0	-0	-0	0	-0	-0	0	-0	-0	0	-0	45	0	-0	-0	0	-0	-0	0	-0	-0	0	-0	-0	0	-0	-0.0572958	0	-0	-0	0	-0	-0	0	-0	-0	0	-0	-0	0	-0	135	0	-0	8.21898	0.107625	18.5169	-0	0	-14.8695	-0	0	21.3405	-11.5714	-34.3508	-27.3685	-0.0572958	0	-0	-0	0	-0	-0	0	-0	-0	0	-0	-0	0	-0	180	0	-0	-10.8234	7.7205	32.209	-0	0	-20.7791	-0	0	-9.84871	-7.77013	-23.0781	-15.9639	-0.0572958	0	-0	-0	0	-0	-0	0	-0	-0	0	-0	-0	0	-0	-135	0	-0	7.92773	-3.30326	-6.68356	-0	0	-16.771	-0	0	-22.5099	-16.2496	-37.534	-23.7172	-0.0572958	0	-0	-0	0	-0	-0	0	-0	-0	0	-0	-0	0	-0
-0.374655	3.14239	3.41897	-104.114	60.2291	-70.3907	-0	0	-0	-0	0	-0	-39.9287	15.221	56.6636	-0	0	-78.1169	-0	0	2.03668	-5.02465	-19.7488	-2.00295	-0.0572958	0	-0	-0	0	-0	-0	0	-0	-0	0	-0	-0	0	-0	-45	0	-0	0.152501	-2.1863	35.3573	-0	0	-28.3139	-0	0	-44.561	-23.0492	-36.0467	-30.3053	-0.0572958	0	-0	-0	0	-0	-0	0	-0	-0	0	-0	-0	0	-0	45	0	-0	7.36069	-7.12583	13.7663	-0	0	4.5419	-0	0	-4.72585	-26.8455	-39.0161	-38.1007	-0.0572958	0	-0	-0	0	-0	-0	0	-0	-0	0	-0	-0	0	-0	135	0	-0	5.15015	-0.0865093	15.9765	-0	0	-15.0948	-0	0	17.0721	-8.76677	-33.295	-26.0443	-0.0572958	0	-0	-0	0	-0	-0	0	-0	-0	0	-0	-0	0	-0	180	0	-0	-27.0675	18.5413	20.9649	-0	0	-7.4896	-0	0	-4.87908	-12.5014	-19.3724	-11.9243	-0.0572958	0	-0	-0	0	-0	-0	0	-0	-0	0	-0	-0	0	-0	-135	0	-0	2.96276	17.5412	-5.96322	-0	0	-17.0691	-0	0	-14.1087	-12.8054	-32.4917	-0.843037	-0.0572958	0	-0	-0	0	-0	-0	0	-0	-0	0	-0	-0	0	-0
-0.374655	3.14239	3.41897	-104.114	60.2291	-70.3907	-0	0	-0	-0	0	-0	-22.1018	8.16575	58.8882	-0	0	-63.2863	-0	0	-29.6901	-20.3396	-37.1471	-25.6329	-0.0572958	0	-0	-0	0	-0	-0	0	-0	-0	0	-0	-0	0	-0	-45	0	-0	0.152501	-2.1863	35.3573	-0	0	-28.3139	-0	0	-44.561	-23.0492	-36.0467	-30.3053	-0.0572958	0	-0	-0	0	-0	-0	0	-0	-0	0	-0	-0	0	-0	45	0	-0	7.36069	-7.12583	13.7663	-0	0	4.5419	-0	0	-4.72585	-26.8455	-39.0161	-38.1007	-0.0572958	0	-0	-0	0	-0	-0	0	-0	-0	0	-0	-0	0	-0	135	0	-0	5.15015	-0.0865093	15.9765	-0	0	-15.0948	-0	0	17.0721	-8.76677	-33.295	-26.0443	-0.0572958	0	-0	-0	0	-0	-0	0	-0	-0	0	-0	-0	0	-0	180	0	-0	-27.0675	18.5413	20.9649	-0	0	-7.4896	-0	0	-4.87908	-12.5014	-19.3724	-11.9243	-0.0572958	0	-0	-0	0	-0	-0	0	-0	-0	0	-0	-0	0	-0	-135	0	-0	2.96276	17.5412	-5.96322	-0	0	-17.0691	-0	0	-14.1087	-12.8054	-32.4917	-0.843037	-0.0572958	0	-0	-0	0	-0	-0	0	-0	-0	0	-0	-0	0	-0
-0.374655	3.14239	3.41897	-104.114	60.2291	-70.3907	-0	0	-0	-0	0	-0	-22.1018	8.16575	58.8882	-0	0	-63.2863	-0	0	-29.6901	-20.3396	-37.1471	-25.6329	-0.0572958	0	-0	-0	0	-0	-0	0	-0	-0	0	-0	-0	0	-0	-45	0	-0	0.152501	-2.1863	35.3573	-0	0	-28.3139	-0	0	-44.561	-23.0492	-36.0467	-30.3053	-0.0572958	0	-0	-0	0	-0	-0	0	-0	-0	0	-0	-0	0	-0	45	0	-0	7.36069	-7.12583	13.7663	-0	0	4.5419	-0	0	-4.72585	-26.8455	-39.0161	-38.1007	-0.0572958	0	-0	-0	0	-0	-0	0	-0	-0	0	-0	-0	0	-0	135	0	-0	5.15015	-0.0865093	15.9765	-0	0	-15.0948	-0	0	17.0721	-8.76677	-33.295	-26.0443	-0.0572958	0	-0	-0	0	-0	-0	0	-0	-0	0	-0	-0	0	-0	180	0	-0	2.5775	8.71842	11.5995	-0	0	-58.8458	-0	0	6.28189	-27.194	-39.4034	-33.5806	-0.0572958	0	-0	-0	0	-0	-0	0	-0	-0	0	-0	-0	0	-0	-135	0	-0	2.96276	17.5412	-5.96322	-0	0	-17.0691	-0	0	-14.1087	-12.8054	-32.4917	-0.843037	-0.0572958	0	-0	-0	0	-0	-0	0	-0	-0	0	-0	-0	0	-0
-0.523966	3.42716	3.6569	-96.6619	1.04213	-62.9383	-0	0	-0	-0	0	-0	-22.0753	7.46762	51.1084	-0	0	2.33423	-0	0	-28.7371	-26.8455	-39.0161	-38.1007	-0.0572958	0	-0	-0	0	-0	-0	0	-0	-0	0	-0	-0	0	-0	-45	0	-0	-17.7877	19.8418	38.9512	-0	0	-3.89451	-0	0	-32.9848	-4.86591	-21.4755	-27.5039	-0.0572958	0	-0	-0	0	-0	-0	0	-0	-0	0	-0	-0	0	-0	45	0	-0	1.79163	0.861128	46.8926	-0	0	-27.2292	-0	0	-27.4861	-7.81866	-28.1546	-23.3903	-0.0572958	0	-0	-0	0	-0	-0	0	-0	-0	0	-0	-0	0	-0	135	0	-0	22.0354	11.8138	-19.4482	-0	0	-12.0317	-0	0	3.15477	-26.3947	-43.5342	0.523655	-0.0572958	0	-0	-0	0	-0	-0	0	-0	-0	0	-0	-0	0	-0	180	0	-0	-14.7511	24.5526	-25.9692	-0	0	3.06495	-0	0	-2.50524	-43.4203	-48.4179	1.27339	-0.0572958	0	-0	-0	0	-0	-0	0	-0	-0	0	-0	-0	0	-0	-135	0	-0	12.7283	26.812	-15.3959	-0	0	-16.2405	-0	0	-9.53836	-28.8842	-40.4927	10.9563	-0.0572958	0	-0	-0	0	-0	-0	0	-0	-0	0	-0	-0	0	-0
-0.526621	3.43222	3.66113	-96.4726	0	-62.749	-0	0	-0	-0	0	-0	-22.0753	7.46762	51.1084	-0	0	2.33423	-0	0	-28.7371	-26.8455	-39.0161	-38.1007	-0.0572958	0	-0	-0	0	-0	-0	0	-0	-0	0	-0	-0	0	-0	-45	0	-0	-20.3254	23.7598	39.7429	-0	0	-4.83108	-0	0	-32.0173	0.711682	-15.7621	-23.4227	-0.0572958	0	-0	-0	0	-0	-0	0	-0	-0	0	-0	-0	0	-0	45	0	-0	0.641908	1.46885	47.2872	-0	0	-28.0975	-0	0	-27.5791	-6.87909	-27.4023	-22.3137	-0.0572958	0	-0	-0	0	-0	-0	0	-0	-0	0	-0	-0	0	-0	135	0	-0	22.0359	12.5674	-20.8457	-0	0	-10.9862	-0	0	4.02744	-26.8567	-43.5199	2.88881	-0.0572958	0	-0	-0	0	-0	-0	0	-0	-0	0	-0	-0	0	-0	180	0	-0	3.92943	1.74089	-12.9635	-0	0	-24.1919	-0	0	19.9391	-11.7419	-36.6147	-12.9869	-0.0572958	0	-0	-0	0	-0	-0	0	-0	-0	0	-0	-0	0	-0	-135	0	-0	13.0579	28.4342	-17.272	-0	0	-15.0524	-0	0	-7.77584	-29.1291	-40.3562	14.5728	-0.0572958	0	-0	-0	0	-0	-0	0	-0	-0	0	-0	-0	0	-0
-0.526621	3.43222	3.66113	-96.4726	-5.76592e-06	-62.749	-0	0	-0	-0	0	-0	-22.0753	7.46762	51.1084	-0	0	2.33423	-0	0	-28.7371	-26.8455	-39.0161	-38.1007	-0.0572958	0	-0	-0	0	-0	-0	0	-0	-0	0	-0	-0	0	-0	-45	0	-0	-20.7129	25.3178	39.788	-0	0	-5.43261	-0	0	-31.5543	2.90507	-13.2145	-21.5866	-0.0572958	0	-0	-0	0	-0	-0	0	-0	-0	0	-0	-0	0	-0	45	0	-0	0.91333	0.836028	47.3587	-0	0	-27.6811	-0	0	-27.9353	-8.28256	-28.8172	-23.8107	-0.0572958	0	-0	-0	0	-0	-0	0	-0	-0	0	-0	-0	0	-0	135	0	-0	21.4543	11.7181	-19.9813	-0	0	-11.0189	-0	0	2.84163	-27.0241	-43.55	-0.765248	-0.0572958	0	-0	-0	0	-0	-0	0	-0	-0	0	-0	-0	0	-0	180	0	-0	0.89996	-2.46141	-11.3801	-0	0	-24.8595	-0	0	17.1409	-14.0205	-39.4829	-21.0669	-0.0572958	0	-0	-0	0	-0	-0	0	-0	-0	0	-0	-0	0	-0	-135	0	-0	12.1768	27.3417	-16.3005	-0	0	-14.8076	-0	0	-8.95316	-29.4591	-40.4336	11.0718	-0.0572958	0	-0	-0	0	-0	-0	0	-0	-0	0	-0	-0	0	-0
